<?xml version="1.0" encoding="utf-8"?>
<!-- Generator: Adobe Illustrator 24.0.0, SVG Export Plug-In . SVG Version: 6.00 Build 0)  -->
<svg version="1.1" id="Layer_1" xmlns="http://www.w3.org/2000/svg" xmlns:xlink="http://www.w3.org/1999/xlink" x="0px" y="0px"
	 viewBox="0 0 69.2 21.4" style="enable-background:new 0 0 69.2 21.4;" xml:space="preserve">
<style type="text/css">
	.st0{fill-rule:evenodd;clip-rule:evenodd;fill:#EA6267;}
	.st1{fill:none;}
	.st2{fill:#FFFFFF;}
	.st3{fill-rule:evenodd;clip-rule:evenodd;fill:#FEFEFE;}
</style>
<g id="Layer_x0020_1">
	<g id="_2239325310592">
		<path class="st0" d="M0.5,0.1h20.2c0.5,0,0.5,0.5,0.5,0.5v20.2c0,0.5,0,0.5-0.5,0.5H0.5c0,0-0.5,0-0.5-0.5V0.6L0.5,0.1z"/>
		<path class="st1" d="M35.3,7c-0.5,0-0.5,0-0.5,0s0,0-0.5,0l0,0c-0.5,0-0.5,0-0.9-0.5H33c-0.5-0.5-0.5-0.5-0.9-0.5
			c-0.5,0-0.9,0-0.9,0.5c-0.5,0-0.5,0-0.9,0c0,0.5,0,0.5,0,0.5c-0.5,0.5-0.5,0.5-0.5,0.9c0,0.5,0,0.5,0.5,0.9c0,0,0.5,0,0.5,0.5
			c0.5,0,0.9,0,0.9,0.5c0.5,0,0.9,0,1.4,0c0.5,0.5,0.9,0.5,0.9,0.5c0.5,0.5,0.9,0.5,0.9,0.9c0.5,0,0.9,0.5,0.9,0.9s0,0.9,0,1.4
			s0,0.9,0,1.8c-0.5,0.5-0.5,0.9-0.9,1.4c-0.5,0-0.9,0.5-1.4,0.9c-0.5,0-1.4,0-1.8,0c-0.5,0-0.9,0-1.4,0c-0.5,0-0.9,0-1.4-0.5
			c0,0-0.5,0-0.9-0.5c-0.5,0-0.5-0.5-0.9-0.5l0.9-1.4c0,0,0,0,0-0.5h0.5c0,0,0.5,0,0.5,0.5c0,0,0.5,0,0.5,0.5c0.5,0,0.5,0,0.9,0.5
			c0.5,0,0.9,0,1.4,0c0.5,0,0.9,0,1.4-0.5c0.5-0.5,0.5-0.9,0.5-1.4c0-0.5,0-0.9,0-0.9c0-0.5-0.5-0.5-0.9-0.5c0-0.5-0.5-0.5-0.9-0.5
			c0,0-0.5-0.5-0.9-0.5s-0.9,0-1.4-0.5c0,0-0.5-0.5-0.9-0.5c0-0.5-0.5-0.9-0.5-0.9c-0.5-0.5-0.5-0.9-0.5-1.8C27.5,7.5,28,7,28,6.6
			c0-0.5,0.5-0.9,0.9-0.9c0.5-0.5,0.9-0.9,1.4-0.9c0.5-0.5,0.9-0.5,1.8-0.5c0.5,0,1.4,0,1.8,0.5c0.9,0,1.4,0.5,1.8,0.9L35.3,7z
			 M42.2,11.1c0.5,0,0.9,0,1.4-0.5c0.5,0,0.5,0,0.9-0.5l0.5-0.5c0-0.5,0-0.9,0-1.4c0,0,0-0.5,0-0.9L44.5,7C44,6.6,44,6.6,43.5,6.6
			c-0.5,0-0.9-0.5-1.4-0.5h-1.8v5H42.2z M42.2,4.3c0.9,0,1.8,0.5,2.3,0.5c0.9,0,1.4,0.5,1.8,0.9c0.5,0.5,0.5,0.9,0.9,1.4
			c0,0.5,0.5,0.9,0.5,1.4c0,0.9-0.5,1.4-0.5,1.8c-0.5,0.5-0.5,0.9-0.9,1.4c-0.5,0.5-0.9,0.9-1.8,0.9C44,13,43.1,13,42.2,13h-1.8v4.6
			H38V4.3H42.2z M63.7,4.3v13.3h-2.3V8.9c0,0,0-0.5,0-0.9l-3.7,7.3c-0.5,0.5-0.9,0.5-0.9,0.5h-0.5c-0.5,0-0.9,0-0.9-0.5l-4.1-7.3
			v0.5c0,0.5,0,0.5,0,0.5v8.7h-1.8V4.3h1.8l0,0c0.5,0,0.5,0,0.5,0v0.5c0,0,0,0,0.5,0l3.7,7.3l0.5,0.5c0,0.5,0,0.5,0,0.9
			c0-0.5,0.5-0.5,0.5-0.9v-0.5L61,4.7l0,0l0.5-0.5l0,0h0.5H63.7z M69.2,17.6h-2.8V4.3h2.8V17.6z"/>
		<g>
			<path class="st2" d="M11,14.8c-1.4,0-1.8-0.5-2.3-0.9c-0.5-0.5-0.5-0.9-0.5-1.4C12.8,13,16,11.6,16,8.9c0-0.9,0-1.4-0.5-1.4
				s-1.8,0.5-3.2,0.9c0,0,0.5,0,0.5,0.5c0,0.9-1.4,1.4-4.1,1.4c0-0.9,0.5-1.8,0.9-2.3C8.7,7.9,7.8,7.5,7.3,7
				C6.9,7.5,6.9,7.9,6.9,8.4l0,0v1.8c0,0,0,0-0.5,0l0,0H6l0.5-1.8l0,0c0-0.5,0.5-0.9,0.5-1.4C5.5,8.4,5,10.7,5,12.5c0,3.2,1.4,5,5,5
				c2.3,0,3.7-0.5,5.5-1.4l-1.4-2.3C13.3,14.4,12.4,14.8,11,14.8z"/>
			<path class="st3" d="M16,6.6c0,0-2.8,1.4-4.6,1.4c-0.9,0-2.3-0.5-3.7-0.9C7.3,7,7.3,7,6.9,6.6C6.4,6.6,6,6.1,6,6.1
				c0-0.9,4.1-2.3,5.5-2.3C13.3,4.3,17.9,6.1,16,6.6z"/>
		</g>
	</g>
</g>
</svg>
